<svg width="16" height="18" viewBox="0 0 16 18" fill="none" xmlns="http://www.w3.org/2000/svg">
<path d="M15.3913 13.8609C14.5023 12.3918 14.022 10.7119 14 8.99491V6.00391C14 4.41261 13.3679 2.88648 12.2427 1.76127C11.1174 0.636047 9.59132 0.00390625 8.00002 0.00390625C6.40872 0.00390625 4.8826 0.636047 3.75738 1.76127C2.63216 2.88648 2.00002 4.41261 2.00002 6.00391V8.99041C1.9788 10.7089 1.49846 12.3905 0.60877 13.8609C0.539897 13.9746 0.502496 14.1046 0.500399 14.2376C0.498301 14.3705 0.531581 14.5016 0.596831 14.6175C0.66208 14.7333 0.756953 14.8297 0.87173 14.8968C0.986507 14.964 1.11706 14.9994 1.25002 14.9994H14.75C14.883 14.9994 15.0135 14.964 15.1283 14.8968C15.2431 14.8297 15.338 14.7333 15.4032 14.6175C15.4685 14.5016 15.5017 14.3705 15.4996 14.2376C15.4975 14.1046 15.4601 13.9746 15.3913 13.8609Z" fill="white"/>
<path d="M8.75524 17.8682C9.06958 17.7562 9.35506 17.5756 9.59102 17.3397C9.82697 17.1037 10.0075 16.8182 10.1195 16.5039H5.88049C5.97967 16.7822 6.1327 17.0383 6.33084 17.2575C6.52899 17.4767 6.76837 17.6547 7.03532 17.7814C7.30226 17.9081 7.59155 17.981 7.88665 17.9959C8.18176 18.0107 8.47691 17.9673 8.75524 17.8682Z" fill="white"/>
</svg>
