<svg width="361" height="145" viewBox="0 0 361 145" fill="none" xmlns="http://www.w3.org/2000/svg">
<path d="M2 25.6295C59.3024 42.2708 90.1904 64.2187 108.005 82.1737C122.855 97.1429 122.591 103.266 138.36 114.434C172.579 138.669 238.129 155.381 269.898 134.555C285.548 124.295 279.759 111.295 287.244 86.6829C293.979 64.5431 311.39 34.093 360 1" stroke="#E92626" stroke-opacity="0.1" stroke-width="0.903173" stroke-miterlimit="10"/>
<path d="M1 32.4304C56.5398 46.6963 87.0112 67.292 104.753 84.0532C119.682 98.1603 120.896 103.802 137.585 114.75C172.597 137.718 233.941 153.708 265.642 134.325C281.972 124.342 278.257 111.595 286.997 87.1175C294.692 65.5677 312.396 35.7136 360 3" stroke="#E92626" stroke-opacity="0.1" stroke-width="0.903173" stroke-miterlimit="10"/>
<path d="M1 44.0777C53.119 55.1992 82.2666 73.1901 99.3698 87.736C113.94 100.128 116.479 104.939 133.566 114.963C168.179 135.27 223.737 149.549 254.3 132.746C270.811 123.668 269.146 112.013 278.848 89.2566C287.198 69.6752 304.665 42.3323 349.826 12.1211" stroke="#E92626" stroke-opacity="0.1" stroke-width="0.903173" stroke-miterlimit="10"/>
<path d="M1 43.2103C52.7627 52.8255 82.3225 70.8697 99.757 85.3448C114.838 97.8589 118.784 102.54 137.288 113.114C173.444 133.786 226.667 148.472 257.788 131.729C275.471 122.217 275.67 109.945 286.914 85.5388C296.356 65.0415 314.64 36.1701 360 4" stroke="#E92626" stroke-opacity="0.1" stroke-width="0.903173" stroke-miterlimit="10"/>
<path d="M1 49.265C50.9154 56.4086 80.0725 72.8579 97.3075 85.924C112.499 97.44 117.718 101.55 137.137 111.729C173.758 130.921 223.221 144.705 253.932 129.516C272.332 120.416 274.356 108.624 286.872 84.7087C297.122 65.1249 315.741 37.2843 360 6" stroke="#E92626" stroke-opacity="0.1" stroke-width="0.903173" stroke-miterlimit="10"/>
<path d="M1 55.8523C49.081 60.6828 77.886 75.8063 94.8864 87.6838C110.22 98.3968 116.628 102.005 136.991 111.932C174.016 129.984 219.892 143.094 250.123 129.163C269.265 120.342 273.02 108.85 286.831 85.0699C297.844 66.0996 316.828 38.8718 360 8" stroke="#E92626" stroke-opacity="0.1" stroke-width="0.903173" stroke-miterlimit="10"/>
<path d="M1 61.5322C47.2731 64.0228 75.7703 77.5995 92.4952 88.1284C108.002 97.8908 115.534 100.951 136.847 110.458C174.225 127.13 216.671 139.379 246.362 126.861C266.267 118.468 271.68 107.449 286.791 84.1939C298.527 66.132 317.906 39.9549 360 10" stroke="#E92626" stroke-opacity="0.1" stroke-width="0.903173" stroke-miterlimit="10"/>
<path d="M2 67.3663C46.3636 67.6226 74.526 79.9859 90.8854 89.4463C106.56 98.5113 115.122 101.114 137.327 110.418C174.91 126.16 213.959 137.867 242.976 126.395C263.608 118.239 270.569 107.409 286.958 84.1208C299.338 66.5219 319.076 40.7645 360 11" stroke="#E92626" stroke-opacity="0.1" stroke-width="0.903173" stroke-miterlimit="10"/>
<path d="M2 73.2199C44.6029 71.2262 72.563 82.3542 88.5559 90.7547C104.485 99.1187 114.015 101.278 137.184 110.356C175.04 125.192 210.929 136.365 239.309 125.903C260.744 118.003 269.188 107.34 286.911 84.03C299.941 66.8931 320.117 41.5633 360 12" stroke="#E92626" stroke-opacity="0.1" stroke-width="0.903173" stroke-miterlimit="10"/>
<path d="M2 78.9523C42.8661 74.7696 70.6784 84.4619 86.2578 91.6893C102.475 99.2123 112.913 100.908 137.047 109.596C175.144 123.309 207.982 133.773 235.696 124.447C257.946 116.96 267.802 106.617 286.876 83.6993C300.519 67.3094 321.155 42.8533 360 14" stroke="#E92626" stroke-opacity="0.1" stroke-width="0.903173" stroke-miterlimit="10"/>
<path d="M2 84.1114C41.1533 77.7526 68.8676 86.0883 83.9868 92.2503C100.54 98.9973 111.811 100.286 136.911 108.637C175.227 121.386 205.103 131.253 232.122 122.924C255.203 115.809 266.396 105.66 286.838 82.9593C301.06 67.1645 322.175 43.3815 360 15" stroke="#E92626" stroke-opacity="0.1" stroke-width="0.903173" stroke-miterlimit="10"/>
<path d="M2 89.848C39.4512 81.2684 67.1277 88.2928 81.742 93.481C98.6741 99.4929 110.715 100.428 136.775 108.497C175.295 120.423 202.286 129.792 228.591 122.344C252.515 115.57 264.979 105.481 286.8 82.8159C301.577 67.4668 323.183 44.1579 360 16" stroke="#E92626" stroke-opacity="0.1" stroke-width="0.903173" stroke-miterlimit="10"/>
<path d="M2 95.1205C37.7739 84.5151 65.4504 90.076 79.5234 94.2466C96.8741 99.3884 109.616 100.008 136.642 107.629C175.352 118.544 199.522 127.26 225.103 120.781C249.873 114.506 263.55 104.615 286.762 82.4278C302.068 67.7975 324.179 45.4065 360 18" stroke="#E92626" stroke-opacity="0.1" stroke-width="0.903173" stroke-miterlimit="10"/>
<path d="M2 99.9513C36.1173 87.2836 63.8282 91.4217 77.331 94.6769C95.1346 98.9691 108.529 99.3517 136.508 106.578C175.4 116.623 196.802 124.784 221.652 119.164C247.283 113.363 262.11 103.523 286.724 81.6355C302.54 67.5723 325.164 45.8987 360 19" stroke="#E92626" stroke-opacity="0.1" stroke-width="0.903173" stroke-miterlimit="10"/>
<path d="M2 105.797C34.4793 91.2615 62.2482 93.9265 75.161 96.3008C93.4408 99.6613 107.447 99.8862 136.377 106.632C175.448 115.742 194.121 123.292 218.244 118.528C244.733 113.296 260.666 103.551 286.688 82.2112C302.992 68.8418 326.137 48.1178 360 22" stroke="#E92626" stroke-opacity="0.1" stroke-width="0.903173" stroke-miterlimit="10"/>
<path d="M2 110.293C32.8644 93.8162 60.6948 95.0289 73.0223 96.6142C91.7866 99.0275 106.38 99.1929 136.25 105.512C175.496 113.817 191.473 120.846 214.877 116.844C242.222 112.167 259.217 102.36 286.653 81.3872C303.433 68.5608 327.1 48.5863 360 23" stroke="#E92626" stroke-opacity="0.1" stroke-width="0.903173" stroke-miterlimit="10"/>
<path d="M2 115.619C31.2594 97.058 59.2825 99.2035 70.9059 97.6664C89.9179 95.1515 105.324 99.2932 136.125 105.234C175.548 112.839 188.846 119.438 211.545 116.12C239.74 112.002 257.764 101.952 286.616 81.1594C303.857 68.7337 328.05 49.3125 360 24" stroke="#E92626" stroke-opacity="0.1" stroke-width="0.903173" stroke-miterlimit="10"/>
<path d="M2 120C29.6776 99.7754 57.8719 99.9882 68.8122 98.227C87.9874 95.1406 104.278 98.9069 135.997 104.339C175.609 111.125 186.237 117.175 208.255 114.567C237.287 111.134 256.315 100.978 286.582 80.8013C304.275 69.0079 328.99 50.5348 360 26" stroke="#E92626" stroke-opacity="0.1" stroke-width="0.903173" stroke-miterlimit="10"/>
<path d="M2 125C28.1133 102.787 56.3454 101.042 66.7431 99.1047C86.1521 95.4898 103.247 98.8899 135.872 103.907C175.672 110.023 183.637 115.655 205 113.677C234.853 110.912 254.867 100.385 286.547 80.4757C304.684 69.078 329.92 51.2108 360 27" stroke="#E92626" stroke-opacity="0.1" stroke-width="0.903173" stroke-miterlimit="10"/>
<path d="M2 130C26.5667 105.807 54.3761 101.067 64.6983 100.001C85.0301 97.9054 102.232 98.9119 135.749 103.496C175.747 108.963 181.041 114.187 201.784 112.81C232.43 110.774 253.425 99.787 286.514 80.1641C305.089 69.1475 330.84 51.8943 360 28" stroke="#E92626" stroke-opacity="0.1" stroke-width="0.903173" stroke-miterlimit="10"/>
<path d="M2 134C25.0375 108.078 52.7015 101.873 62.6749 100.231C83.1801 96.8552 101.232 98.3067 135.626 102.406C175.829 107.196 178.443 111.975 198.602 111.186C230.014 109.956 251.992 98.5319 286.478 79.3911C305.488 68.84 331.747 52.3605 360 29" stroke="#E92626" stroke-opacity="0.1" stroke-width="0.903173" stroke-miterlimit="10"/>
<path d="M4 139C25.4061 111.115 52.6853 103.406 62.3471 101.177C82.7913 96.4594 101.7 98.4257 136.76 102.071C176.952 106.251 176.867 110.643 196.376 110.41C228.334 110.027 251.18 97.9697 286.856 79.1399C306.188 68.9376 332.797 53.0644 360 30" stroke="#E92626" stroke-opacity="0.1" stroke-width="0.903173" stroke-miterlimit="10"/>
</svg>
