<svg width="10" height="13" viewBox="0 0 10 13" fill="none" xmlns="http://www.w3.org/2000/svg">
<path d="M4.88695 0.833984C2.59974 0.833984 0.749878 2.69894 0.749878 5.00482C0.749878 6.04157 1.04538 7.01278 1.5832 7.88865C2.14466 8.80623 2.88343 9.59273 3.4508 10.5103C3.72857 10.9572 3.92951 11.3743 4.14228 11.8569C4.29594 12.1846 4.42005 12.7507 4.88695 12.7507C5.35385 12.7507 5.47796 12.1846 5.62571 11.8569C5.84439 11.3743 6.03942 10.9572 6.3172 10.5103C6.88457 9.59869 7.62333 8.81219 8.18479 7.88865C8.72852 7.01278 9.02402 6.04157 9.02402 5.00482C9.02402 2.69894 7.17416 0.833984 4.88695 0.833984ZM4.88695 6.64336C4.49509 6.64336 4.11927 6.48642 3.84218 6.20707C3.56509 5.92772 3.40942 5.54884 3.40942 5.15378C3.40942 4.75871 3.56509 4.37983 3.84218 4.10048C4.11927 3.82113 4.49509 3.66419 4.88695 3.66419C5.27881 3.66419 5.65463 3.82113 5.93172 4.10048C6.20881 4.37983 6.36448 4.75871 6.36448 5.15378C6.36448 5.54884 6.20881 5.92772 5.93172 6.20707C5.65463 6.48642 5.27881 6.64336 4.88695 6.64336Z" fill="black"/>
</svg>
