<svg width="14" height="10" viewBox="0 0 14 10" fill="none" xmlns="http://www.w3.org/2000/svg">
<path d="M11.6568 0.65625H1.66525C1.2236 0.65625 0.800037 0.794413 0.487742 1.04035C0.175446 1.28628 0 1.61983 0 1.96763L0 2.22991L6.66102 5.18052L13.322 2.29548V1.96763C13.322 1.61983 13.1466 1.28628 12.8343 1.04035C12.522 0.794413 12.0984 0.65625 11.6568 0.65625Z" fill="black"/>
<path d="M6.2447 6.49219L0 3.73828V8.52483C0 8.87263 0.175446 9.20619 0.487742 9.45212C0.800037 9.69805 1.2236 9.83622 1.66525 9.83622H11.6568C12.0984 9.83622 12.522 9.69805 12.8343 9.45212C13.1466 9.20619 13.322 8.87263 13.322 8.52483V3.73828L7.07733 6.49219C6.94611 6.53759 6.80434 6.56103 6.66102 6.56103C6.51769 6.56103 6.37592 6.53759 6.2447 6.49219Z" fill="black"/>
</svg>
