<svg width="13" height="12" viewBox="0 0 13 12" fill="none" xmlns="http://www.w3.org/2000/svg">
<path d="M3.1375 5.29417C4.0375 6.945 5.4875 8.2925 7.25625 9.13833L8.63125 7.855C8.8 7.6975 9.05 7.645 9.26875 7.715C9.96875 7.93083 10.725 8.0475 11.5 8.0475C11.8437 8.0475 12.125 8.31 12.125 8.63083V10.6667C12.125 10.9875 11.8437 11.25 11.5 11.25C5.63125 11.25 0.875 6.81083 0.875 1.33333C0.875 1.0125 1.15625 0.75 1.5 0.75H3.6875C4.03125 0.75 4.3125 1.0125 4.3125 1.33333C4.3125 2.0625 4.4375 2.7625 4.66875 3.41583C4.7375 3.62 4.6875 3.8475 4.5125 4.01083L3.1375 5.29417Z" fill="black"/>
</svg>
