<svg width="151" height="24" viewBox="0 0 151 24" fill="none" xmlns="http://www.w3.org/2000/svg">
<path d="M10 17.27L16.18 21L14.54 13.97L20 9.24L12.81 8.63L10 2L7.19 8.63L0 9.24L5.46 13.97L3.82 21L10 17.27Z" fill="black"/>
<path d="M10 17.27L16.18 21L14.54 13.97L20 9.24L12.81 8.63L10 2L7.19 8.63L0 9.24L5.46 13.97L3.82 21L10 17.27Z" fill="black"/>
<path d="M53 9.24L45.81 8.62L43 2L40.19 8.63L33 9.24L38.46 13.97L36.82 21L43 17.27L49.18 21L47.55 13.97L53 9.24ZM43 15.4V6.1L44.71 10.14L49.09 10.52L45.77 13.4L46.77 17.68L43 15.4Z" fill="black"/>
<path d="M53 9.24L45.81 8.62L43 2L40.19 8.63L33 9.24L38.46 13.97L36.82 21L43 17.27L49.18 21L47.55 13.97L53 9.24ZM43 15.4V6.1L44.71 10.14L49.09 10.52L45.77 13.4L46.77 17.68L43 15.4Z" fill="black"/>
<path d="M85 9.24L77.81 8.62L75 2L72.19 8.63L65 9.24L70.46 13.97L68.82 21L75 17.27L81.18 21L79.55 13.97L85 9.24ZM75 15.4V6.1L76.71 10.14L81.09 10.52L77.77 13.4L78.77 17.68L75 15.4Z" fill="black"/>
<path d="M85 9.24L77.81 8.62L75 2L72.19 8.63L65 9.24L70.46 13.97L68.82 21L75 17.27L81.18 21L79.55 13.97L85 9.24ZM75 15.4V6.1L76.71 10.14L81.09 10.52L77.77 13.4L78.77 17.68L75 15.4Z" fill="black"/>
<path d="M117 9.24L109.81 8.62L107 2L104.19 8.63L97 9.24L102.46 13.97L100.82 21L107 17.27L113.18 21L111.55 13.97L117 9.24ZM107 15.4V6.1L108.71 10.14L113.09 10.52L109.77 13.4L110.77 17.68L107 15.4Z" fill="black"/>
<path d="M117 9.24L109.81 8.62L107 2L104.19 8.63L97 9.24L102.46 13.97L100.82 21L107 17.27L113.18 21L111.55 13.97L117 9.24ZM107 15.4V6.1L108.71 10.14L113.09 10.52L109.77 13.4L110.77 17.68L107 15.4Z" fill="black"/>
<path d="M149 9.24L141.81 8.62L139 2L136.19 8.63L129 9.24L134.46 13.97L132.82 21L139 17.27L145.18 21L143.55 13.97L149 9.24ZM139 15.4V6.1L140.71 10.14L145.09 10.52L141.77 13.4L142.77 17.68L139 15.4Z" fill="black"/>
<path d="M149 9.24L141.81 8.62L139 2L136.19 8.63L129 9.24L134.46 13.97L132.82 21L139 17.27L145.18 21L143.55 13.97L149 9.24ZM139 15.4V6.1L140.71 10.14L145.09 10.52L141.77 13.4L142.77 17.68L139 15.4Z" fill="black"/>
</svg>
