<svg width="48" height="47" viewBox="0 0 48 47" fill="none" xmlns="http://www.w3.org/2000/svg">
<ellipse cx="24" cy="23.5" rx="24" ry="23.5" fill="white"/>
<g clip-path="url(#clip0_2147_7127)">
<path d="M35.6 18.2L32 15.5V11H30V15.5L26.4 18.2C26.2758 18.2931 26.175 18.4139 26.1056 18.5528C26.0361 18.6916 26 18.8448 26 19V22C26 22.2652 26.1054 22.5196 26.2929 22.7071C26.4804 22.8946 26.7348 23 27 23C27.2652 23 27.5196 22.8946 27.7071 22.7071C27.8946 22.5196 28 22.2652 28 22V19.5L31 17.25L34 19.5V22C34 22.2652 34.1054 22.5196 34.2929 22.7071C34.4804 22.8946 34.7348 23 35 23C35.2652 23 35.5196 22.8946 35.7071 22.7071C35.8946 22.5196 36 22.2652 36 22V19C36 18.8448 35.9639 18.6916 35.8944 18.5528C35.825 18.4139 35.7242 18.2931 35.6 18.2Z" fill="black"/>
<path d="M35 25H27C26.4477 25 26 25.4477 26 26V30C26 30.5523 26.4477 31 27 31H35C35.5523 31 36 30.5523 36 30V26C36 25.4477 35.5523 25 35 25Z" fill="black"/>
<path d="M35 33H13C12.4477 33 12 33.4477 12 34C12 34.5523 12.4477 35 13 35H35C35.5523 35 36 34.5523 36 34C36 33.4477 35.5523 33 35 33Z" fill="black"/>
<path d="M23 19H13C12.7348 19 12.4804 19.1054 12.2929 19.2929C12.1054 19.4804 12 19.7348 12 20V30C12 30.2652 12.1054 30.5196 12.2929 30.7071C12.4804 30.8946 12.7348 31 13 31H23C23.2652 31 23.5196 30.8946 23.7071 30.7071C23.8946 30.5196 24 30.2652 24 30V20C24 19.7348 23.8946 19.4804 23.7071 19.2929C23.5196 19.1054 23.2652 19 23 19Z" fill="black"/>
</g>
<defs>
<clipPath id="clip0_2147_7127">
<rect width="24" height="24" fill="white" transform="translate(12 11)"/>
</clipPath>
</defs>
</svg>
