<svg width="48" height="47" viewBox="0 0 48 47" fill="none" xmlns="http://www.w3.org/2000/svg">
<ellipse cx="24" cy="23.5" rx="24" ry="23.5" fill="white"/>
<path d="M20.5545 27.888C20.5545 27.3333 20.7358 26.8747 21.0985 26.512C21.4612 26.128 21.9198 25.936 22.4745 25.936C23.3492 25.936 24.1385 25.808 24.8425 25.552C25.5465 25.2747 26.1012 24.8373 26.5065 24.24C26.9332 23.6427 27.1465 22.8533 27.1465 21.872C27.1465 21.1467 26.9652 20.5067 26.6025 19.952C26.2612 19.3973 25.7812 18.96 25.1625 18.64C24.5652 18.32 23.8825 18.16 23.1145 18.16C22.5172 18.16 21.9518 18.2667 21.4185 18.48C20.9065 18.6933 20.4372 18.9813 20.0105 19.344C19.6692 19.6427 19.2532 19.8667 18.7625 20.016C18.2932 20.144 17.8132 20.0267 17.3225 19.664C16.8105 19.28 16.5332 18.8213 16.4905 18.288C16.4478 17.7547 16.6505 17.264 17.0985 16.816C17.8665 16.0267 18.7625 15.4187 19.7865 14.992C20.8318 14.544 21.9412 14.32 23.1145 14.32C24.5865 14.32 25.9092 14.6613 27.0825 15.344C28.2772 16.0053 29.2265 16.9013 29.9305 18.032C30.6345 19.1627 30.9865 20.4427 30.9865 21.872C30.9865 22.9387 30.8265 23.888 30.5065 24.72C30.1865 25.5307 29.7278 26.2347 29.1305 26.832C28.5545 27.408 27.8718 27.8773 27.0825 28.24C26.3145 28.5813 25.4718 28.8267 24.5545 28.976C24.5118 28.9973 24.4692 29.0187 24.4265 29.04C24.4052 29.0613 24.3945 29.0933 24.3945 29.136V30.32C24.3945 30.8747 24.2132 31.344 23.8505 31.728C23.4878 32.0907 23.0292 32.272 22.4745 32.272C21.9198 32.272 21.4612 32.0907 21.0985 31.728C20.7358 31.344 20.5545 30.8747 20.5545 30.32V27.888ZM22.3145 38C21.6958 38 21.2158 37.84 20.8745 37.52C20.5545 37.1787 20.3945 36.6987 20.3945 36.08V35.536C20.3945 34.9173 20.5545 34.448 20.8745 34.128C21.2158 33.7867 21.6958 33.616 22.3145 33.616H22.7305C23.3492 33.616 23.8185 33.7867 24.1385 34.128C24.4798 34.448 24.6505 34.9173 24.6505 35.536V36.08C24.6505 36.6987 24.4798 37.1787 24.1385 37.52C23.8185 37.84 23.3492 38 22.7305 38H22.3145Z" fill="black"/>
</svg>
