<svg width="12" height="14" viewBox="0 0 12 14" fill="none" xmlns="http://www.w3.org/2000/svg">
<path d="M7.16663 8.16602H4.83329C3.59604 8.16741 2.40986 8.65952 1.535 9.53439C0.660127 10.4093 0.168016 11.5954 0.166626 12.8327C0.166546 12.9564 0.205774 13.0769 0.278646 13.1768C0.351518 13.2767 0.454262 13.3509 0.572043 13.3886C2.34353 13.8469 4.17091 14.0525 5.99996 13.9993C7.829 14.0525 9.65639 13.8469 11.4279 13.3886C11.5457 13.3509 11.6484 13.2767 11.7213 13.1768C11.7941 13.0769 11.8334 12.9564 11.8333 12.8327C11.8319 11.5954 11.3398 10.4093 10.4649 9.53439C9.59005 8.65952 8.40388 8.16741 7.16663 8.16602Z" fill="black"/>
<path d="M5.99996 6.99914C7.80829 6.99914 9.20829 4.97497 9.20829 3.23372C9.20829 2.38282 8.87027 1.56677 8.26859 0.96509C7.66691 0.363411 6.85086 0.0253906 5.99996 0.0253906C5.14906 0.0253906 4.333 0.363411 3.73132 0.96509C3.12965 1.56677 2.79163 2.38282 2.79163 3.23372C2.79163 4.97497 4.19163 6.99914 5.99996 6.99914Z" fill="black"/>
</svg>
